<?xml version="1.0" encoding="utf-8"?>
<!-- Generator: Adobe Illustrator 18.1.1, SVG Export Plug-In . SVG Version: 6.00 Build 0)  -->
<svg version="1.1" id="Layer_1" xmlns="http://www.w3.org/2000/svg" xmlns:xlink="http://www.w3.org/1999/xlink" x="0px" y="0px"
	 viewBox="-294 259.9 370 43.1" enable-background="new -294 259.9 370 43.1" xml:space="preserve">
<path fill="#1C456D" d="M-250.2,260.4h4.2v42h-11v-21.9l-12.5,10.9h-1.3l-12.3-10.9v21.9h-11v-42h4l19.9,18.2L-250.2,260.4
	L-250.2,260.4z M-165.8,287.6c-1.1,1.3-2.1,2.4-3.3,3.2c-0.2,0.1-0.3,0.2-0.5,0.3c-0.1,0.1-0.3,0.2-0.4,0.2
	c-0.2,0.1-0.5,0.2-0.7,0.4c-0.1,0-0.2,0.1-0.3,0.1c-1.3,0.5-2.7,0.8-4,0.8c-5.3,0-10.4-3.8-10.4-11.2c0-7.6,5.1-11.2,10.5-11.2
	c3.4,0,6.8,1.7,8.7,5c0,0.1,0.1,0.1,0.1,0.2l8.6-6.6c-4-5.8-10.7-8.8-17.4-8.8c-10.8,0-21.3,7.2-21.3,21.5
	c0,14.4,10.2,21.4,21.1,21.4c7.9,0,14.2-3.5,17.9-9.2L-165.8,287.6L-165.8,287.6z M-129.1,278.9l14.1-16.7v-1.8h-12.4l-14.6,17v-17
	h-11v42h11v-11.1l5.2-5.7l11.2,16.8h12.6v-1.5L-129.1,278.9z M60.4,278.9L75,262.2v-1.8H62.1l-15.1,17v-17H36v42h11v-11.1l5.5-5.7
	l11.4,16.8H76v-1.5L60.4,278.9z M-240,283.9v-23.5h11v23.4c0,6,3.9,8.9,8.5,8.9s8.5-2.8,8.5-8.6v-23.7h11v23.2
	c0,13.5-7.9,19.4-19.6,19.4C-232.4,303-240,297-240,283.9L-240,283.9z M-25.1,260.4h-7L-51,301v1.4h11l2.4-5h17.8l2.5,5H-6V301
	L-25.1,260.4z M-23.3,288.4h-10.6l4.6-11h1.4L-23.3,288.4L-23.3,288.4L-23.3,288.4z M23.7,287.6c-1.1,1.3-2.1,2.4-3.3,3.2
	c-0.2,0.1-0.3,0.2-0.5,0.3c-0.1,0.1-0.3,0.2-0.4,0.2c-0.2,0.1-0.5,0.2-0.7,0.4c-0.1,0-0.2,0.1-0.3,0.1c-1.3,0.5-2.7,0.8-4,0.8
	c-5.3,0-10.4-3.8-10.4-11.2c0-7.6,5.1-11.2,10.5-11.2c3.4,0,6.8,1.7,8.7,5c0,0.1,0.1,0.1,0.1,0.2l8.6-6.6c-4-5.8-10.7-8.8-17.4-8.8
	c-10.8,0-21.3,7.2-21.3,21.5c0,14.4,10.2,21.4,21.1,21.4c7.9,0,14.2-3.5,17.9-9.2L23.7,287.6L23.7,287.6z M-59.4,287.6
	c4.2-2.8,6.2-7.5,6.3-12.4c0-7.4-4.9-14.9-15.1-14.9c-6.2-0.1-14.7,0-20.7,0v42.1h11v-13h6.3l6.4,13H-54l0.3-1.8l-6.9-12.4
	C-59.8,287.8-59.4,287.6-59.4,287.6L-59.4,287.6z M-78,269.4h9.6c3.1,0,4.6,2.8,4.6,5.4c0,2.6-1.5,5.6-4.6,5.6H-78V269.4z"/>
</svg>
