<svg xmlns="http://www.w3.org/2000/svg" viewBox="0 0 392.7 112.1"><path class="sabre-logo" fill="#fff" d="M370.6 80.1c-4.6 12.8-16.8 21-37 21-16.8 0-33.3-9.7-29-32.1 3.1-19 20.5-31.6 40.4-31.6 22.2 0 32.1 15.1 28.4 33l-.9 4h-41.8c0 .6-.6 2.6-.6 4.5 0 5.4 2.8 7.4 6.3 7.4 3.7 0 7.1-2.3 8.8-6.2h25.4zm-21.3-18.2l.3-1.4c.9-4.8-1.4-8.2-6.3-8.2-4.6 0-8.5 3.1-9.7 9.7l15.7-.1zm-48.6-23.4c-6.5 0-11.7 3.4-15.1 8.2h-.6l1.1-7.7h-27l-1.7 8 14.8-1.7-.3 1.4-15.1 2.6-10.5 50h29s2.9-14.5 4.8-22.8c2.8-13.6 10.2-16.5 15.1-16.5 4.3 0 6.8 1.7 7.4 2.3l4.8-22.2c-.5-.1-2.7-1.5-6.7-1.6M36.8 64.1c-11.7-3.7-20.5-10.5-20.5-23.6 0-19.1 19-29.9 44.6-30.1 21.3 0 35.8 9.1 33.3 27H63.6c1.1-4.8-1.7-7.7-7.1-7.7-4 0-7.1 2-7.7 4.6-.6 3.4 1.7 5.7 7.1 7.1 4.5 1.4 7.7 2.3 12.2 3.4 13.1 4 19.3 11.7 20.8 19.6l-38.4 4-13.7-4.3zM38 84.9l2.6-12.2h-33c-2.3 20.5 13.9 29 35 29 19.9 0 41.2-6.8 45.8-25L38 84.9zm170.9-41.5c2.3-1.7 8-6 16.5-6 8.8 0 15.6 3.7 18.8 10.8L177 55.3l8.8-42.6h29l-6.5 30.7h.6zm-1.8 13.9c-1.7 2.6-3.4 6.3-4.6 11.7-2.5 11.9.4 15 3.8 15 4.8 0 8.8-4.6 10.8-14.8 1.1-6.5.9-11.4-.9-13.4l29-4.6c1.4 4.6 1.7 10.5.3 17.1-4.3 21.6-17.3 32.7-31.8 32.7-6.5 0-13.9-1.7-16.8-8.8h-.8l-2.3 7.1h-26.2l7.7-37 31.8-5zm-79.9 0c.9-3.7 3.7-6.5 7.4-6.5 3.4 0 5.1 3.1 4.3 6.3l-.3 2.3 27-2.8c-2-13.9-14.8-19.9-29.9-19.9-22.5 0-33.3 11.1-35.5 21L100 59h27l.2-1.7M94 75.8c-.9 2.3-1.4 4.8-1.4 7.7 0 9.4 7.1 17.6 19 17.6 10.8 0 17.1-4.5 19.9-7.7h.3l-.6 6h27.3l6.5-31.6c.3-1.1.6-2.6.8-3.7L94 75.8zm40.6 2.3c-.9 4.6-4 8.3-8.2 8.3-4.3 0-6-3.4-5.4-7.1.9-3.1 4-6.3 10-6.3h4.8l-1.2 5.1z"/><text class="sabre-logo-reg" fill="#fff" transform="translate(375.174 100.844)">®</text></svg>