<svg xmlns="http://www.w3.org/2000/svg" viewBox="-294 259.9 370 43.1"><path fill="#1C456D" d="M-250.2 260.4h4.2v42h-11v-21.9l-12.5 10.9h-1.3l-12.3-10.9v21.9h-11v-42h4l19.9 18.2 20-18.2zm84.4 27.2c-1.1 1.3-2.1 2.4-3.3 3.2-.2.1-.3.2-.5.3-.1.1-.3.2-.4.2-.2.1-.5.2-.7.4-.1 0-.2.1-.3.1-1.3.5-2.7.8-4 .8-5.3 0-10.4-3.8-10.4-11.2 0-7.6 5.1-11.2 10.5-11.2 3.4 0 6.8 1.7 8.7 5 0 .1.1.1.1.2l8.6-6.6c-4-5.8-10.7-8.8-17.4-8.8-10.8 0-21.3 7.2-21.3 21.5 0 14.4 10.2 21.4 21.1 21.4 7.9 0 14.2-3.5 17.9-9.2l-8.6-6.1zm36.7-8.7l14.1-16.7v-1.8h-12.4l-14.6 17v-17h-11v42h11v-11.1l5.2-5.7 11.2 16.8h12.6v-1.5l-16.1-22zm189.5 0L75 262.2v-1.8H62.1l-15.1 17v-17H36v42h11v-11.1l5.5-5.7 11.4 16.8H76v-1.5l-15.6-22zm-300.4 5v-23.5h11v23.4c0 6 3.9 8.9 8.5 8.9s8.5-2.8 8.5-8.6v-23.7h11v23.2c0 13.5-7.9 19.4-19.6 19.4-11.8 0-19.4-6-19.4-19.1zm214.9-23.5h-7L-51 301v1.4h11l2.4-5h17.8l2.5 5H-6V301l-19.1-40.6zm1.8 28h-10.6l4.6-11h1.4l4.6 11zm47-.8c-1.1 1.3-2.1 2.4-3.3 3.2-.2.1-.3.2-.5.3-.1.1-.3.2-.4.2-.2.1-.5.2-.7.4-.1 0-.2.1-.3.1-1.3.5-2.7.8-4 .8-5.3 0-10.4-3.8-10.4-11.2 0-7.6 5.1-11.2 10.5-11.2 3.4 0 6.8 1.7 8.7 5 0 .1.1.1.1.2l8.6-6.6c-4-5.8-10.7-8.8-17.4-8.8-10.8 0-21.3 7.2-21.3 21.5 0 14.4 10.2 21.4 21.1 21.4 7.9 0 14.2-3.5 17.9-9.2l-8.6-6.1zm-83.1 0c4.2-2.8 6.2-7.5 6.3-12.4 0-7.4-4.9-14.9-15.1-14.9-6.2-.1-14.7 0-20.7 0v42.1h11v-13h6.3l6.4 13H-54l.3-1.8-6.9-12.4 1.2-.6zM-78 269.4h9.6c3.1 0 4.6 2.8 4.6 5.4 0 2.6-1.5 5.6-4.6 5.6H-78v-11z"/></svg>